#define bullet_width 10
#define bullet_height 10
static unsigned char bullet_bits[] = {
   0x00, 0x00, 0x18, 0x00, 0x3c, 0x00, 0x7c, 0x00, 0xf8, 0x00, 0xf8, 0x00,
   0x7c, 0x00, 0x3c, 0x00, 0x18, 0x00, 0x00, 0x00 };
