#define close_width 10
#define close_height 10
static unsigned char close_bits[] = {
   0x00, 0x00, 0x00, 0x00, 0xcc, 0x00, 0xee, 0x01, 0xee, 0x01, 0xdc, 0x00,
   0x58, 0x00, 0x10, 0x00, 0x00, 0x00, 0x00, 0x00 };
