#define desk_width 10
#define desk_height 10
static unsigned char desk_bits[] = {
   0x00, 0x00, 0x4a, 0x01, 0xce, 0x01, 0x84, 0x00, 0x00, 0x00, 0x00, 0x00,
   0x4a, 0x01, 0xce, 0x01, 0x84, 0x00, 0x00, 0x00 };
