#define iconify_width 10
#define iconify_height 10
static unsigned char iconify_bits[] = {
   0x00, 0x00, 0x00, 0x00, 0x00, 0x00, 0x00, 0x00, 0x00, 0x00, 0x00, 0x00,
   0x4a, 0x01, 0xce, 0x01, 0x84, 0x00, 0x00, 0x00 };
